kd 0.126 0.078 0.078
ka 0.126 0.078 0.078
v -0.21541590 0.78461315 -4.3202011e-2
v -0.23252163 0.76828798 2.4585538e-2
v -0.27264072 0.76560137 8.4062505e-2
v -0.32966541 0.77696232 0.12617406
v -0.39491420 0.80064124 0.14450910
v -0.45845355 0.83303322 0.13627628
v -0.51061018 0.86920688 0.10272897
v -0.54344371 0.90365511 4.8974456e-2
v -0.55195553 0.93113347 -1.6803637e-2
v -0.53484979 0.94745864 -8.4591186e-2
v -0.49473070 0.95014525 -0.14406815
v -0.43770601 0.93878430 -0.18617971
v -0.37245723 0.91510538 -0.20451475
v -0.30891787 0.88271340 -0.19628193
v -0.25676125 0.84653974 -0.16273462
v -0.22392772 0.81209151 -0.10898010
v -1.01528524 -0.94133686 -0.66070149
v -1.03239097 -0.95766203 -0.59291394
v -1.07251006 -0.96034864 -0.53343697
v -1.12953475 -0.94898769 -0.49132542
v -1.19478354 -0.92530877 -0.47299038
v -1.25832289 -0.89291679 -0.48122319
v -1.31047952 -0.85674313 -0.51477050
v -1.34331304 -0.82229490 -0.56852502
v -1.35182487 -0.79481654 -0.63430311
v -1.33471913 -0.77849137 -0.70209066
v -1.29460004 -0.77580476 -0.76156763
v -1.23757535 -0.78716571 -0.80367918
v -1.17232656 -0.81084463 -0.82201422
v -1.10878721 -0.84323661 -0.81378140
v -1.05663059 -0.87941027 -0.78023410
v -1.02379706 -0.91385850 -0.72647958
vn 0.99638815 3.7229133e-2 7.6319321e-2
vn 0.88066283 7.4948692e-2 0.46777737
vn 0.68508825 7.3655469e-2 0.72472682
vn 0.41939152 0.13489418 0.89772731
vn 0.12727577 0.11483549 0.98519729
vn -0.18037527 0.27167414 0.94533482
vn -0.37819166 0.56272129 0.73506178
vn -0.50857932 0.71394399 0.48128065
vn -0.35482670 0.89489846 0.27065616
vn -0.55027805 0.82571031 -0.12408283
vn -0.13705685 0.96724806 -0.21365068
vn -7.9917819e-2 0.78371005 -0.61596404
vn 0.24340395 0.54612414 -0.80156281
vn 0.60502815 0.56922276 -0.55671032
vn 0.82716838 0.40607617 -0.38845155
vn 0.89348759 0.44188267 -8.0122638e-2
vn 0.35482670 -0.89489846 -0.27065616
vn 0.47618380 -0.87906532 2.2206990e-2
vn 0.48506186 -0.75488035 0.44144156
vn 6.5493936e-2 -0.86115008 0.50411416
vn -0.23601013 -0.66905916 0.70474042
vn -0.57005640 -0.71063523 0.41235091
vn -0.76108053 -0.46099134 0.45633694
vn -0.92540614 -0.30300724 0.22761829
vn -0.99638815 -3.7229133e-2 -7.6319321e-2
vn -0.86078334 -0.27518773 -0.42816323
vn -0.68358989 0.27278516 -0.67697350
vn -0.49110136 -0.30819804 -0.81475973
vn -0.22416745 -0.20574139 -0.95258566
vn 6.6086900e-2 -0.34625845 -0.93580853
vn 0.31210380 -0.50780612 -0.80294717
vn 0.59188889 -0.61361809 -0.52262834
f 1//1 9//9 8//8 2//2
f 1//1 18//18 17//17
f 1//1 32//32 16//16
f 2//2 8//8 7//7 3//3
f 2//2 18//18 1//1
f 2//2 19//19 18//18
f 3//3 7//7 6//6 4//4
f 3//3 19//19 2//2
f 3//3 20//20 19//19
f 4//4 6//6 5//5
f 4//4 20//20 3//3
f 4//4 21//21 20//20
f 5//5 21//21 4//4
f 6//6 21//21 5//5
f 6//6 23//23 22//22
f 7//7 23//23 6//6
f 7//7 24//24 23//23
f 8//8 24//24 7//7
f 8//8 25//25 24//24
f 9//9 25//25 8//8
f 10//10 16//16 15//15 11//11
f 10//10 25//25 9//9
f 10//10 27//27 26//26
f 11//11 15//15 14//14 12//12
f 11//11 27//27 10//10
f 12//12 14//14 13//13
f 12//12 27//27 11//11
f 12//12 29//29 28//28
f 13//13 29//29 12//12
f 13//13 30//30 29//29
f 14//14 30//30 13//13
f 14//14 31//31 30//30
f 15//15 31//31 14//14
f 15//15 32//32 31//31
f 16//16 10//10 9//9 1//1
f 16//16 32//32 15//15
f 17//17 21//21 22//22 32//32
f 17//17 32//32 1//1
f 18//18 20//20 21//21 17//17
f 19//19 20//20 18//18
f 22//22 21//21 6//6
f 23//23 31//31 32//32 22//22
f 24//24 30//30 31//31 23//23
f 25//25 29//29 30//30 24//24
f 26//26 25//25 10//10
f 26//26 28//28 29//29 25//25
f 27//27 28//28 26//26
f 28//28 27//27 12//12
v -0.24378099 0.80666487 4.9350218e-17
v -0.25630466 0.81293626 7.0413752e-2
v -0.29196906 0.83079566 0.13010765
v -0.34534461 0.85752414 0.16999383
v -0.40830537 0.88905254 0.18400000
v -0.47126612 0.92058094 0.16999383
v -0.52464167 0.94730942 0.13010765
v -0.56030607 0.96516883 7.0413752e-2
v -0.57282975 0.97144021 6.7903255e-17
v -0.56030607 0.96516883 -7.0413752e-2
v -0.52464167 0.94730942 -0.13010765
v -0.47126612 0.92058094 -0.16999383
v -0.40830537 0.88905254 -0.18400000
v -0.34534461 0.85752414 -0.16999383
v -0.29196906 0.83079566 -0.13010765
v -0.25630466 0.81293626 -7.0413752e-2
v -1.13929916 -0.98164360 -5.1282538e-17
v -1.15182283 -0.97537222 7.0413752e-2
v -1.18748724 -0.95751281 0.13010765
v -1.24086279 -0.93078433 0.16999383
v -1.30382354 -0.89925593 0.18400000
v -1.36678430 -0.86772753 0.16999383
v -1.42015985 -0.84099905 0.13010765
v -1.45582425 -0.82313965 7.0413752e-2
v -1.46834792 -0.81686826 -3.2729501e-17
v -1.45582425 -0.82313965 -7.0413752e-2
v -1.42015985 -0.84099905 -0.13010765
v -1.36678430 -0.86772753 -0.16999383
v -1.30382354 -0.89925593 -0.18400000
v -1.24086279 -0.93078433 -0.16999383
v -1.18748724 -0.95751281 -0.13010765
v -1.15182283 -0.97537222 -7.0413752e-2
vn 0.99997411 7.1956854e-3 1.0715160e-16
vn 0.91477551 0.16967267 0.36660189
vn 0.73883084 0.25777920 0.62263864
vn 0.55926778 0.51838404 0.64691385
vn 0.19982253 0.25910798 0.94495186
vn 1.3996616e-2 0.62074914 0.78388430
vn -0.35992456 0.68818221 0.62996790
vn -0.25877099 0.92802734 0.26796049
vn -0.59324628 0.80502103 6.3030352e-18
vn -0.41210989 0.83412738 -0.36660189
vn -0.23616521 0.74602085 -0.62263864
vn 1.3996616e-2 0.62074914 -0.78388430
vn 0.19982253 0.25910798 -0.94495186
vn 0.55926778 0.51838404 -0.64691385
vn 0.76665239 0.12403450 -0.62996790
vn 0.89811054 0.34870423 -0.26796049
vn 0.30642999 -0.95189320 -3.6658875e-16
vn 0.44958066 -0.85289135 0.26543094
vn 0.30540217 -0.78069214 0.54520574
vn 0.10148561 -0.55876563 0.82309273
vn -0.30029073 -0.47738373 0.82579068
vn -0.57913145 -0.33775070 0.74197792
vn -0.76665239 -0.12403450 0.62996790
vn -0.93933577 -3.7561104e-2 0.34093617
vn -0.94576954 -0.32483838 -3.9631216e-16
vn -0.95224628 -0.15090871 -0.26543094
vn -0.80806779 -0.22310792 -0.54520574
vn -0.57913145 -0.33775070 -0.74197792
vn -0.30029073 -0.47738373 -0.82579068
vn 0.10148561 -0.55876563 -0.82309273
vn 0.35992456 -0.68818221 -0.62996790
vn 0.53260794 -0.77465561 -0.34093617
f 33//33 41//41 40//40 34//34
f 33//33 50//50 49//49
f 33//33 64//64 48//48
f 34//34 40//40 39//39 35//35
f 34//34 50//50 33//33
f 34//34 51//51 50//50
f 35//35 39//39 38//38 36//36
f 35//35 51//51 34//34
f 35//35 52//52 51//51
f 36//36 38//38 37//37
f 36//36 52//52 35//35
f 37//37 52//52 36//36
f 38//38 53//53 37//37
f 39//39 54//54 38//38
f 39//39 56//56 55//55
f 40//40 56//56 39//39
f 41//41 56//56 40//40
f 41//41 58//58 57//57
f 42//42 48//48 47//47 43//43
f 42//42 58//58 41//41
f 42//42 59//59 58//58
f 43//43 47//47 46//46 44//44
f 43//43 59//59 42//42
f 43//43 60//60 59//59
f 44//44 46//46 45//45
f 44//44 60//60 43//43
f 44//44 61//61 60//60
f 45//45 61//61 44//44
f 45//45 62//62 61//61
f 46//46 62//62 45//45
f 47//47 62//62 46//46
f 47//47 64//64 63//63
f 48//48 42//42 41//41 33//33
f 48//48 64//64 47//47
f 49//49 61//61 62//62 64//64
f 49//49 64//64 33//33
f 50//50 60//60 61//61 49//49
f 51//51 59//59 60//60 50//50
f 52//52 58//58 59//59 51//51
f 53//53 52//52 37//37
f 53//53 57//57 58//58 52//52
f 54//54 53//53 38//38
f 54//54 56//56 57//57 53//53
f 55//55 54//54 39//39
f 55//55 56//56 54//54
f 57//57 56//56 41//41
f 63//63 62//62 47//47
f 63//63 64//64 62//62
v -0.30027804 0.90861527 2.6982505e-2
v -0.31428421 0.94014367 8.9943259e-2
v -0.35417040 0.96687215 0.14331881
v -0.41386429 0.98473155 0.17898321
v -0.48427804 0.99100294 0.19150688
v -0.55469180 0.98473155 0.17898321
v -0.61438569 0.96687215 0.14331881
v -0.65427188 0.94014367 8.9943259e-2
v -0.66827804 0.90861527 2.6982505e-2
v -0.65427188 0.87708687 -3.5978250e-2
v -0.61438569 0.85035839 -8.9353800e-2
v -0.55469180 0.83249898 -0.12501820
v -0.48427804 0.82622760 -0.13754187
v -0.41386429 0.83249898 -0.12501820
v -0.35417040 0.85035839 -8.9353800e-2
v -0.31428421 0.87708687 -3.5978250e-2
v -0.30027804 -0.87969320 0.92250068
v -0.31428421 -0.84816481 0.98546143
v -0.35417040 -0.82143632 1.03883698
v -0.41386429 -0.80357692 1.07450139
v -0.48427804 -0.79730553 1.08702506
v -0.55469180 -0.80357692 1.07450139
v -0.61438569 -0.82143632 1.03883698
v -0.65427188 -0.84816481 0.98546143
v -0.66827804 -0.87969320 0.92250068
v -0.65427188 -0.91122160 0.85953993
v -0.61438569 -0.93795009 0.80616438
v -0.55469180 -0.95580949 0.77049997
v -0.48427804 -0.96208088 0.75797630
v -0.41386429 -0.95580949 0.77049997
v -0.35417040 -0.93795009 0.80616438
v -0.31428421 -0.91122160 0.85953993
vn 0.89090915 0.40610836 -0.20336392
vn 0.74197792 0.66604936 7.6465822e-2
vn 0.62387865 0.60618364 0.49327155
vn 0.26543094 0.85289135 0.44958066
vn -5.4753327e-2 0.87165531 0.48705143
vn -0.36660189 0.83412738 0.41210989
vn -0.62263864 0.74602085 0.23616521
vn -0.78388430 0.62074914 -1.3996616e-2
vn -0.82579068 0.47738373 -0.30029073
vn -0.74197792 0.33775070 -0.57913145
vn -0.62387865 -3.1859696e-2 -0.78087156
vn -0.26543094 0.15090871 -0.95224628
vn 5.4753327e-2 0.13214474 -0.98971705
vn 0.36660189 0.16967267 -0.91477551
vn 0.62263864 0.25777920 -0.73883084
vn 0.64691385 0.51838404 -0.55926778
vn 0.70021451 -0.63836579 0.31966977
vn 0.89699841 -0.15116299 0.41538369
vn 0.62263864 -0.25777920 0.73883084
vn 0.36660189 -0.16967267 0.91477551
vn 5.4753327e-2 -0.13214474 0.98971705
vn -0.26543094 -0.15090871 0.95224628
vn -0.54520574 -0.22310792 0.80806779
vn -0.74197792 -0.33775070 0.57913145
vn -0.82579068 -0.47738373 0.30029073
vn -0.89699841 -0.42316095 -0.12778368
vn -0.62263864 -0.74602085 -0.23616521
vn -0.36660189 -0.83412738 -0.41210989
vn -5.4753327e-2 -0.87165531 -0.48705143
vn 0.26543094 -0.85289135 -0.44958066
vn 0.54520574 -0.78069214 -0.30540217
vn 0.82309273 -0.55876563 -0.10148561
f 65//65 69//69 68//68 66//66
f 65//65 82//82 81//81
f 65//65 96//96 80//80
f 66//66 68//68 67//67
f 66//66 82//82 65//65
f 66//66 83//83 82//82
f 67//67 83//83 66//66
f 67//67 84//84 83//83
f 68//68 84//84 67//67
f 68//68 85//85 84//84
f 69//69 85//85 68//68
f 69//69 86//86 85//85
f 70//70 80//80 79//79 71//71
f 70//70 86//86 69//69
f 70//70 87//87 86//86
f 71//71 79//79 78//78 72//72
f 71//71 87//87 70//70
f 71//71 88//88 87//87
f 72//72 78//78 77//77 73//73
f 72//72 88//88 71//71
f 72//72 89//89 88//88
f 73//73 77//77 76//76 74//74
f 73//73 89//89 72//72
f 73//73 90//90 89//89
f 74//74 76//76 75//75
f 74//74 90//90 73//73
f 74//74 91//91 90//90
f 75//75 91//91 74//74
f 75//75 92//92 91//91
f 76//76 92//92 75//75
f 76//76 93//93 92//92
f 77//77 93//93 76//76
f 77//77 94//94 93//93
f 78//78 94//94 77//77
f 78//78 95//95 94//94
f 79//79 95//95 78//78
f 79//79 96//96 95//95
f 80//80 70//70 69//69 65//65
f 80//80 96//96 79//79
f 81//81 83//83 84//84 96//96
f 81//81 96//96 65//65
f 82//82 83//83 81//81
f 85//85 95//95 96//96 84//84
f 86//86 94//94 95//95 85//85
f 87//87 93//93 94//94 86//86
f 88//88 92//92 93//93 87//87
f 89//89 91//91 92//92 88//88
f 90//90 91//91 89//89
v -0.26545323 0.90275356 8.3763600e-2
v -0.27945939 0.86693121 0.14438418
v -0.31934558 0.83656248 0.19577583
v -0.37903948 0.81627074 0.23011463
v -0.44945323 0.80914523 0.24217282
v -0.51986698 0.81627074 0.23011463
v -0.57956087 0.83656248 0.19577583
v -0.61944706 0.86693121 0.14438418
v -0.63345323 0.90275356 8.3763600e-2
v -0.61944706 0.93857592 2.3143016e-2
v -0.57956087 0.96894465 -2.8248633e-2
v -0.51986698 0.98923639 -6.2587435e-2
v -0.44945323 0.99636190 -7.4645618e-2
v -0.37903948 0.98923639 -6.2587435e-2
v -0.31934558 0.96894465 -2.8248633e-2
v -0.27945939 0.93857592 2.3143016e-2
v -0.26545323 -0.81908576 -0.93371826
v -0.27945939 -0.85490812 -0.87309768
v -0.31934558 -0.88527685 -0.82170603
v -0.37903948 -0.90556858 -0.78736722
v -0.44945323 -0.91269409 -0.77530904
v -0.51986698 -0.90556858 -0.78736722
v -0.57956087 -0.88527685 -0.82170603
v -0.61944706 -0.85490812 -0.87309768
v -0.63345323 -0.81908576 -0.93371826
v -0.61944706 -0.78326341 -0.99433884
v -0.57956087 -0.75289468 -1.04573049
v -0.51986698 -0.73260294 -1.08006929
v -0.44945323 -0.72547743 -1.09212748
v -0.37903948 -0.73260294 -1.08006929
v -0.31934558 -0.75289468 -1.04573049
v -0.27945939 -0.78326341 -0.99433884
vn 0.89090915 0.39101383 0.23106074
vn 0.74197792 0.29673966 0.60117746
vn 0.54520574 0.16648328 0.82160454
vn 0.26543094 8.4451015e-2 0.96042410
vn -5.4753327e-2 6.3131523e-2 0.99650212
vn -0.41950236 -0.15545539 0.89434411
vn -0.62263864 0.20587657 0.75494103
vn -0.78388430 0.34820946 0.51407740
vn -0.82579068 0.51110030 0.23842447
vn -0.74197792 0.66975043 -3.0052090e-2
vn -0.54520574 0.80000680 -0.25047916
vn -0.26796049 0.94375010 -0.19373416
vn -5.2315192e-16 0.84425578 -0.53594047
vn 0.41950236 0.70843245 -0.56757488
vn 0.62263864 0.76061352 -0.18381566
vn 0.64691385 0.75096101 0.13251424
vn 0.70021451 -0.61463855 -0.36320669
vn 0.78388430 -0.61828062 -5.7047975e-2
vn 0.62263864 -0.76061352 0.18381566
vn 0.36660189 -0.86071958 0.35322069
vn 5.4753327e-2 -0.90335856 0.42537675
vn -0.26543094 -0.88203907 0.38929872
vn -0.62387865 -0.63895885 0.45000780
vn -0.74197792 -0.66975043 3.0052090e-2
vn -0.82579068 -0.51110030 -0.23842447
vn -0.78388430 -0.34820946 -0.51407740
vn -0.62263864 -0.20587657 -0.75494103
vn -0.34093617 2.7727136e-2 -0.93967746
vn 2.4769510e-16 -0.25841077 -0.96603513
vn 0.26543094 -8.4451015e-2 -0.96042410
vn 0.62387865 8.5981793e-2 -0.77677703
vn 0.82309273 -0.21756564 -0.52457940
f 97//97 107//107 106//106 98//98
f 97//97 114//114 113//113
f 97//97 128//128 112//112
f 98//98 106//106 105//105 99//99
f 98//98 114//114 97//97
f 98//98 115//115 114//114
f 99//99 105//105 104//104 100//100
f 99//99 115//115 98//98
f 99//99 116//116 115//115
f 100//100 104//104 103//103 101//101
f 100//100 116//116 99//99
f 100//100 117//117 116//116
f 101//101 103//103 102//102
f 101//101 117//117 100//100
f 101//101 118//118 117//117
f 102//102 118//118 101//101
f 102//102 119//119 118//118
f 103//103 119//119 102//102
f 103//103 120//120 119//119
f 104//104 120//120 103//103
f 104//104 121//121 120//120
f 105//105 121//121 104//104
f 105//105 122//122 121//121
f 106//106 122//122 105//105
f 106//106 123//123 122//122
f 107//107 123//123 106//106
f 107//107 124//124 123//123
f 108//108 112//112 111//111 109//109
f 108//108 124//124 107//107
f 109//109 111//111 110//110
f 109//109 124//124 108//108
f 109//109 126//126 125//125
f 110//110 126//126 109//109
f 110//110 127//127 126//126
f 111//111 127//127 110//110
f 111//111 128//128 127//127
f 112//112 108//108 107//107 97//97
f 112//112 128//128 111//111
f 113//113 125//125 126//126 128//128
f 113//113 128//128 97//97
f 114//114 124//124 125//125 113//113
f 115//115 123//123 124//124 114//114
f 116//116 122//122 123//123 115//115
f 117//117 121//121 122//122 116//116
f 118//118 120//120 121//121 117//117
f 119//119 120//120 118//118
f 125//125 124//124 109//109
f 127//127 128//128 126//126
v -0.24210662 0.98219020 4.9350218e-17
v -0.25487590 0.97643537 7.0413752e-2
v -0.29123975 0.96004702 0.13010765
v -0.34566210 0.93552011 0.16999383
v -0.40985764 0.90658865 0.18400000
v -0.47405318 0.87765719 0.16999383
v -0.52847553 0.85313028 0.13010765
v -0.56483938 0.83674193 7.0413752e-2
v -0.57760866 0.83098710 6.7903255e-17
v -0.56483938 0.83674193 -7.0413752e-2
v -0.52847553 0.85313028 -0.13010765
v -0.47405318 0.87765719 -0.16999383
v -0.40985764 0.90658865 -0.18400000
v -0.34566210 0.93552011 -0.16999383
v -0.29123975 0.96004702 -0.13010765
v -0.25487590 0.97643537 -7.0413752e-2
v 0.57964934 -0.84119049 -5.1282538e-17
v 0.56688006 -0.84694532 7.0413752e-2
v 0.53051620 -0.86333367 0.13010765
v 0.47609386 -0.88786058 0.16999383
v 0.41189832 -0.91679204 0.18400000
v 0.34770278 -0.94572350 0.16999383
v 0.29328043 -0.97025041 0.13010765
v 0.25691658 -0.98663876 7.0413752e-2
v 0.24414729 -0.99239359 -3.2729501e-17
v 0.25691658 -0.98663876 -7.0413752e-2
v 0.29328043 -0.97025041 -0.13010765
v 0.34770278 -0.94572350 -0.16999383
v 0.41189832 -0.91679204 -0.18400000
v 0.47609386 -0.88786058 -0.16999383
v 0.53051620 -0.86333367 -0.13010765
v 0.56688006 -0.84694532 -7.0413752e-2
vn 0.62562008 0.78012789 6.3030352e-18
vn 0.44582313 0.81660565 0.36660189
vn 0.26642783 0.73575630 0.62263864
vn 1.1359840e-2 0.62080299 0.78388430
vn -0.28054906 0.48924633 0.82579068
vn -0.56485839 0.36111462 0.74197792
vn -0.78152122 4.9349847e-5 0.62387865
vn -0.94529073 0.18966247 0.26543094
vn -0.98349638 0.17244406 -5.4753327e-2
vn -0.90708509 0.20688088 -0.36660189
vn -0.72768979 0.28773023 -0.62263864
vn -0.47262180 0.40268354 -0.78388430
vn -0.18071290 0.53424020 -0.82579068
vn 0.10359642 0.66237191 -0.74197792
vn 0.38772246 0.67291287 -0.62996790
vn 0.44582313 0.81660565 -0.36660189
vn 0.93171796 -0.36318266 3.9631216e-17
vn 0.94529073 -0.18966247 0.26543094
vn 0.79828462 -0.25591476 0.54520574
vn 0.56485839 -0.36111462 0.74197792
vn 0.28054906 -0.48924633 0.82579068
vn -1.1359840e-2 -0.62080299 0.78388430
vn -0.43682869 -0.54913178 0.71248508
vn -0.44582313 -0.81660565 0.36660189
vn -0.52223441 -0.85104247 5.4753327e-2
vn -0.48402877 -0.83382406 -0.26543094
vn -0.33702266 -0.76757177 -0.54520574
vn -0.10359642 -0.66237191 -0.74197792
vn 0.18071290 -0.53424020 -0.82579068
vn 0.47262180 -0.40268354 -0.78388430
vn 0.72617471 5.6345103e-2 -0.68519743
vn 0.94529073 -0.18966247 -0.26543094
f 129//129 141//141 140//140 130//130
f 129//129 146//146 145//145
f 129//129 160//160 144//144
f 130//130 140//140 139//139 131//131
f 130//130 146//146 129//129
f 130//130 147//147 146//146
f 131//131 139//139 138//138 132//132
f 131//131 147//147 130//130
f 131//131 148//148 147//147
f 132//132 138//138 137//137 133//133
f 132//132 148//148 131//131
f 132//132 149//149 148//148
f 133//133 137//137 136//136 134//134
f 133//133 149//149 132//132
f 133//133 150//150 149//149
f 134//134 136//136 135//135
f 134//134 150//150 133//133
f 134//134 151//151 150//150
f 135//135 151//151 134//134
f 135//135 152//152 151//151
f 136//136 152//152 135//135
f 136//136 153//153 152//152
f 137//137 153//153 136//136
f 137//137 154//154 153//153
f 138//138 154//154 137//137
f 138//138 155//155 154//154
f 139//139 155//155 138//138
f 139//139 156//156 155//155
f 140//140 156//156 139//139
f 140//140 157//157 156//156
f 141//141 157//157 140//140
f 141//141 158//158 157//157
f 142//142 144//144 143//143
f 142//142 158//158 141//141
f 142//142 159//159 158//158
f 143//143 159//159 142//142
f 144//144 142//142 141//141 129//129
f 144//144 159//159 143//143
f 145//145 157//157 158//158 160//160
f 145//145 160//160 129//129
f 146//146 156//156 157//157 145//145
f 147//147 155//155 156//156 146//146
f 148//148 154//154 155//155 147//147
f 149//149 153//153 154//154 148//148
f 150//150 152//152 153//153 149//149
f 151//151 152//152 150//150
f 159//159 160//160 158//158
f 160//160 159//159 144//144
